<svg width="50" height="50" viewBox="0 0 50 50" fill="none" xmlns="http://www.w3.org/2000/svg">
<circle cx="25" cy="25" r="25" fill="white"/>
<path d="M23.7966 16.2391V20.5577C23.7966 21.4167 23.4554 22.2406 22.8479 22.848C22.2405 23.4554 21.4167 23.7967 20.5576 23.7967H16.239C15.38 23.7967 14.5561 23.4554 13.9487 22.848C13.3412 22.2406 13 21.4167 13 20.5577V16.2391C13 15.38 13.3412 14.5562 13.9487 13.9488C14.5561 13.3413 15.38 13.0001 16.239 13.0001H20.5576C21.4167 13.0001 22.2405 13.3413 22.8479 13.9488C23.4554 14.5562 23.7966 15.38 23.7966 16.2391ZM33.9813 13H29.6627C28.8037 13 27.9798 13.3412 27.3724 13.9487C26.765 14.5561 26.4237 15.38 26.4237 16.239V20.5576C26.4237 21.4167 26.765 22.2405 27.3724 22.8479C27.9798 23.4554 28.8037 23.7966 29.6627 23.7966H33.9813C34.8404 23.7966 35.6642 23.4554 36.2716 22.8479C36.8791 22.2405 37.2203 21.4167 37.2203 20.5576V16.239C37.2203 15.38 36.8791 14.5561 36.2716 13.9487C35.6642 13.3412 34.8404 13 33.9813 13ZM20.558 26.4233H16.2393C15.3803 26.4233 14.5565 26.7645 13.949 27.3719C13.3416 27.9794 13.0004 28.8032 13.0004 29.6623V33.9809C13.0004 34.8399 13.3416 35.6638 13.949 36.2712C14.5565 36.8786 15.3803 37.2199 16.2393 37.2199H20.558C21.417 37.2199 22.2409 36.8786 22.8483 36.2712C23.4557 35.6638 23.797 34.8399 23.797 33.9809V29.6623C23.797 28.8032 23.4557 27.9794 22.8483 27.3719C22.2409 26.7645 21.417 26.4233 20.558 26.4233ZM33.9813 26.4235H29.6627C28.8037 26.4235 27.9798 26.7647 27.3724 27.3721C26.765 27.9796 26.4237 28.8034 26.4237 29.6625V33.9811C26.4237 34.8401 26.765 35.664 27.3724 36.2714C27.9798 36.8788 28.8037 37.2201 29.6627 37.2201H33.9813C34.8404 37.2201 35.6642 36.8788 36.2716 36.2714C36.8791 35.664 37.2203 34.8401 37.2203 33.9811V29.6625C37.2203 28.8034 36.8791 27.9796 36.2716 27.3721C35.6642 26.7647 34.8404 26.4235 33.9813 26.4235Z" fill="#6289CD"/>
</svg>
